<svg width="240" height="85" viewBox="0 0 240 85" fill="none" xmlns="http://www.w3.org/2000/svg">
<path d="M221.998 82.3695C220.108 82.3833 218.219 82.2758 216.343 82.0476C214.822 81.8532 213.315 81.565 211.829 81.1849C211.373 81.0728 210.94 80.8805 210.55 80.6169C210.317 81.0701 209.96 81.4482 209.521 81.7076C209.083 81.9669 208.58 82.097 208.07 82.0828H199.291C198.525 82.0751 197.789 81.7864 197.222 81.2714C196.91 80.9779 196.638 80.6452 196.411 80.2816L196.376 80.2275L189.72 69.4582V78.8617C189.737 79.2728 189.671 79.6831 189.526 80.068C189.38 80.4528 189.159 80.8043 188.874 81.1011C188.612 81.3993 188.291 81.6403 187.932 81.8092C187.573 81.9781 187.182 82.0712 186.786 82.0828H180.1C179.691 82.0725 179.289 81.9795 178.917 81.8094C178.545 81.6393 178.212 81.3955 177.937 81.0929C177.352 80.4968 177.023 79.6964 177.02 78.8617V42.9244C177.022 42.5292 177.112 42.1394 177.281 41.7824C177.451 41.4254 177.697 41.11 178.002 40.8582C178.536 40.3882 179.229 40.1397 179.941 40.1631H186.956C187.321 40.1562 187.684 40.2228 188.023 40.359C188.362 40.4951 188.67 40.698 188.929 40.9556C189.188 41.2132 189.392 41.5203 189.53 41.8585C189.668 42.1968 189.736 42.5593 189.731 42.9244V52.6092L197.285 41.5884C197.869 40.6418 198.84 40.1631 200.17 40.1631H207.975C210.742 40.1631 210.821 42.3808 210.821 42.6351C210.805 43.2577 210.61 43.8627 210.258 44.3767C210.236 44.4092 210.217 44.4417 210.196 44.4714L198.837 60.5415L209.19 76.1113V73.1958C209.18 72.766 209.274 72.34 209.462 71.9534C209.65 71.5668 209.927 71.2306 210.272 70.9727C210.733 70.6088 211.307 70.4175 211.894 70.4318C211.986 70.4318 212.084 70.4318 212.184 70.4318H212.424C212.979 70.4318 213.739 70.4318 214.696 70.513C215.012 70.5373 215.345 70.54 215.632 70.54H216.359C216.643 70.54 217.017 70.54 217.409 70.5643L220.148 70.7185C220.973 70.7672 221.63 70.7915 222.096 70.7915C223.875 70.7915 224.324 70.4562 224.329 70.4535C224.503 70.2912 224.6 69.8395 224.6 69.2473C224.616 69.0353 224.548 68.8255 224.411 68.6631C224.267 68.5008 223.767 68.0194 222.231 67.1134L215.18 62.9242C213.982 62.2259 212.87 61.391 211.864 60.436C211.004 59.6105 210.266 58.6661 209.674 57.6315C209.137 56.6699 208.747 55.6334 208.516 54.5565C208.298 53.536 208.189 52.4952 208.192 51.4517C208.182 49.8928 208.437 48.3436 208.946 46.8703C209.497 45.3196 210.44 43.9379 211.683 42.8595C213.078 41.6823 214.708 40.8173 216.465 40.3227C218.317 39.7548 220.613 39.4654 223.286 39.4654C224.232 39.4654 225.252 39.5005 226.396 39.5736C227.477 39.6412 228.543 39.7304 229.563 39.844C230.582 39.9576 231.507 40.0685 232.421 40.2145C233.165 40.3268 233.902 40.4803 234.628 40.6743L234.736 40.7067C235.179 40.8592 235.586 41.1003 235.932 41.4153C236.22 41.6866 236.445 42.0177 236.591 42.3855C236.738 42.7533 236.801 43.1487 236.778 43.5438V48.6823C236.822 49.3491 236.651 50.0123 236.291 50.5754C236.04 50.9519 235.699 51.2603 235.299 51.4731C234.9 51.6859 234.454 51.7966 234.001 51.7952H233.898C233.565 51.7866 233.232 51.7495 232.905 51.6843C232.594 51.627 232.28 51.5864 231.964 51.5626C231.504 51.5355 231.05 51.4814 230.571 51.4247C230.093 51.3679 229.617 51.3138 229.119 51.2813C228.121 51.2164 227.045 51.1569 225.92 51.1055C224.857 51.0568 223.899 51.0298 223.077 51.0298C221.606 51.0298 221.2 51.3002 221.184 51.3002C221.121 51.4276 221.096 51.5702 221.111 51.7113C221.109 51.7921 221.117 51.8729 221.133 51.952C221.154 51.9822 221.179 52.0103 221.206 52.0359C221.427 52.2445 221.669 52.4302 221.928 52.5903C222.331 52.8607 222.853 53.1609 223.48 53.5071L230.001 57.023C233.024 58.6456 235.066 60.4441 236.237 62.5023C237.388 64.5353 237.981 66.8358 237.957 69.1715C237.953 70.779 237.671 72.3737 237.124 73.8855C236.517 75.5445 235.529 77.0377 234.239 78.2451C232.791 79.5753 231.089 80.5983 229.235 81.2525C227.258 81.9908 224.819 82.3695 221.998 82.3695ZM163.806 82.3695C162.104 82.3734 160.405 82.2259 158.729 81.9286C157.019 81.6431 155.39 80.9979 153.948 80.0355C152.434 78.9896 151.23 77.5544 150.464 75.8814C149.594 74.0423 149.153 71.8517 149.153 69.3771V52.4199C149.153 49.9372 149.596 47.7547 150.467 45.9291C151.258 44.2723 152.47 42.8527 153.983 41.8129C155.426 40.8491 157.058 40.2038 158.77 39.9197C160.45 39.6243 162.154 39.4776 163.86 39.4816C165.242 39.4816 166.486 39.5087 167.557 39.56C168.628 39.6114 169.563 39.6736 170.364 39.7439C171.229 39.8224 171.889 39.8873 172.441 39.9549C172.993 40.0225 173.471 40.0874 173.993 40.1659C175.659 40.4174 176.73 41.6073 176.73 43.1949V47.9413C176.731 48.7452 176.415 49.517 175.849 50.0888C175.284 50.6605 174.516 50.9861 173.712 50.9946H163.351C162.93 50.974 162.509 51.0336 162.11 51.1704C162.045 51.2705 161.858 51.6302 161.858 52.4334V55.3083H173.488C173.839 55.3002 174.188 55.3642 174.514 55.4963C174.839 55.6284 175.135 55.8258 175.381 56.0764C175.653 56.3337 175.866 56.6467 176.006 56.9939C176.146 57.3412 176.21 57.7145 176.192 58.0885V62.935C176.212 63.341 176.151 63.7469 176.012 64.1287C175.872 64.5106 175.658 64.8606 175.381 65.1581L175.357 65.1824C175.1 65.4721 174.786 65.7056 174.434 65.868C174.083 66.0305 173.702 66.1184 173.315 66.1263H161.864V69.3717C161.834 69.8479 161.928 70.3236 162.134 70.7537C162.514 70.9367 162.933 71.0205 163.354 70.9971H173.718C174.111 70.9782 174.504 71.0405 174.872 71.1801C175.24 71.3197 175.575 71.5336 175.857 71.8084C176.138 72.0704 176.361 72.388 176.512 72.7409C176.663 73.0939 176.74 73.4744 176.736 73.8584V78.6075C176.736 80.2302 175.654 81.4337 174.002 81.6852C173.082 81.8259 171.892 81.9719 170.369 82.1288C168.847 82.2856 166.618 82.3695 163.806 82.3695V82.3695ZM136.241 82.3695C134.541 82.3731 132.843 82.2255 131.168 81.9286C129.457 81.6431 127.826 80.9978 126.384 80.0355C124.868 78.9902 123.662 77.555 122.895 75.8814C122.019 74.0288 121.572 71.8246 121.572 69.3771V52.4199C121.572 49.9507 122.019 47.7682 122.9 45.9291C123.694 44.2698 124.913 42.8498 126.432 41.8129C127.875 40.85 129.506 40.2047 131.217 39.9197C132.897 39.62 134.6 39.4689 136.306 39.4681C137.686 39.4681 138.93 39.4951 140.001 39.5465C141.072 39.5979 142.01 39.6601 142.808 39.7304C143.652 39.8062 144.331 39.8738 144.882 39.9414C145.434 40.009 145.899 40.0739 146.429 40.1523C148.087 40.4038 149.155 41.5911 149.155 43.1814V47.9277C149.16 48.7293 148.848 49.5003 148.287 50.0723C147.725 50.6444 146.96 50.9711 146.159 50.9811H135.795C135.429 50.9598 135.061 51.0094 134.713 51.1272C134.579 51.5441 134.523 51.9825 134.548 52.4199V55.3083H145.929C146.278 55.2999 146.625 55.3641 146.948 55.4967C147.271 55.6294 147.563 55.8277 147.806 56.0791C148.077 56.3364 148.29 56.6489 148.43 56.9956C148.57 57.3423 148.634 57.715 148.617 58.0885V62.935C148.639 63.3411 148.579 63.7475 148.439 64.1296C148.3 64.5117 148.084 64.8616 147.806 65.1581L147.771 65.1959C147.517 65.4824 147.207 65.713 146.86 65.8732C146.512 66.0334 146.136 66.1195 145.753 66.1263H134.548V69.3717C134.525 69.8505 134.588 70.3297 134.735 70.7861C135.063 70.9494 135.429 71.0222 135.795 70.9971H146.156C146.547 70.9796 146.937 71.0427 147.302 71.1822C147.667 71.3218 148 71.5349 148.279 71.8084C148.559 72.0718 148.781 72.3905 148.932 72.7444C149.082 73.0982 149.157 73.4794 149.153 73.8638V78.6129C149.153 80.2356 148.071 81.4418 146.427 81.6906C145.499 81.834 144.312 81.98 142.808 82.1342C141.304 82.2883 139.057 82.3695 136.241 82.3695V82.3695ZM106.598 82.3695C105.437 82.3617 104.279 82.2477 103.138 82.0287C101.855 81.7895 100.604 81.3991 99.4117 80.8658C98.1283 80.2878 96.9299 79.5371 95.8499 78.6346C94.6576 77.6409 93.6274 76.4675 92.7965 75.1566C91.8539 73.6615 91.1486 72.0293 90.7059 70.3182C90.1753 68.2877 89.9126 66.1966 89.9243 64.0979V57.7694C89.9243 54.3049 90.4652 51.3273 91.52 48.9149C92.4599 46.7062 93.905 44.7489 95.739 43.2003C97.4256 41.7993 99.4024 40.7905 101.527 40.247C103.499 39.7338 105.528 39.4712 107.566 39.4654C109.855 39.4383 112.143 39.5929 114.408 39.9279C116.212 40.2172 117.58 40.4688 118.587 40.6797C120.393 41.0178 121.037 42.3213 121.037 43.4356V48.8446C121.037 49.2529 121.037 50.4862 119.998 51.184C119.536 51.57 118.954 51.784 118.351 51.7898H118.186C118.039 51.7899 117.892 51.7736 117.748 51.7411C116.733 51.5726 115.707 51.4822 114.679 51.4706L113.478 51.4111L112.025 51.3219C110.6 51.2272 109.126 51.1326 107.568 51.1326C106.835 51.1204 106.105 51.2245 105.405 51.4409C104.931 51.5928 104.508 51.8738 104.185 52.2522C103.747 52.8081 103.439 53.455 103.285 54.1454C102.997 55.3404 102.866 56.5677 102.895 57.7964V64.1763C102.895 65.7476 103.041 67.0025 103.325 67.9031C103.518 68.6054 103.846 69.2632 104.291 69.8395C104.548 70.1672 104.885 70.4232 105.27 70.5833C105.661 70.7341 106.075 70.8165 106.495 70.8267C107.119 70.8267 107.731 70.8267 108.304 70.7942V60.9445C108.323 60.1947 108.634 59.482 109.172 58.9594L109.21 58.9188C109.502 58.6132 109.857 58.374 110.25 58.2177C110.643 58.0613 111.065 57.9915 111.487 58.0128H118.021C118.412 58.0041 118.8 58.0736 119.163 58.2171C119.526 58.3606 119.857 58.5752 120.135 58.8483C120.414 59.1215 120.636 59.4476 120.787 59.8076C120.938 60.1675 121.016 60.5541 121.015 60.9445V78.0964C121.015 79.7191 120.009 80.9361 118.389 81.2579C116.88 81.5527 115.255 81.7988 113.413 82.0233C111.15 82.2711 108.874 82.3866 106.598 82.3695V82.3695ZM19.8509 82.3532C15.4796 82.3511 11.2635 80.7329 8.01336 77.8097C4.77787 74.9274 2.7263 70.9476 2.2555 66.6401C2.24198 66.4968 2.21223 66.321 2.17977 66.1344C2.08861 65.6709 2.03793 65.2003 2.02832 64.7281V19.5198C2.02832 15.5874 3.41302 11.7903 6.03097 8.53681C6.79501 7.64453 7.64468 6.82928 8.56778 6.10277C11.7349 3.46418 15.7287 2.02253 19.8509 2.0298H65.0592C66.1471 2.01854 67.2336 2.10908 68.3046 2.30025C72.2312 3.055 75.785 5.1213 78.3834 8.16045C80.9818 11.1996 82.4707 15.0313 82.606 19.0275V19.0843C82.606 19.2358 82.606 19.371 82.606 19.5252V64.7281C82.6096 69.3929 80.7623 73.8686 77.4696 77.1729C74.1769 80.4773 69.7078 82.3403 65.043 82.3532H19.8509ZM193.89 39.0651C192.411 39.0622 190.933 38.9455 189.471 38.7162C187.856 38.4759 186.31 37.8932 184.939 37.007C183.46 36.0538 182.245 34.7432 181.406 33.1964C180.431 31.252 179.943 29.0996 179.984 26.9247V20.6529C179.78 21.2016 179.527 21.731 179.229 22.2351C178.254 23.9135 176.89 25.3327 175.251 26.3729C173.675 27.3573 171.934 28.0491 170.113 28.4148C168.432 28.766 166.72 28.9472 165.004 28.9557C164.758 28.9557 164.525 28.9557 164.309 28.9557V35.7521C164.325 36.1434 164.262 36.534 164.122 36.8999C163.983 37.2659 163.77 37.5996 163.497 37.8806L163.454 37.9265C163.21 38.201 162.912 38.4222 162.579 38.5762C162.246 38.7302 161.885 38.8138 161.518 38.8217H153.223C152.612 38.7999 152.019 38.6058 151.514 38.2619C151.122 38.011 150.799 37.6654 150.575 37.2571C150.352 36.8488 150.235 36.3907 150.234 35.9252V8.25555C150.231 7.54757 150.309 6.84152 150.467 6.15145C150.628 5.45423 150.952 4.8053 151.414 4.25831C151.889 3.70458 152.501 3.28421 153.188 3.03858C153.79 2.82713 154.411 2.67584 155.043 2.58693C155.616 2.49768 156.309 2.42196 157.147 2.35434C157.986 2.28673 158.783 2.24616 159.646 2.20289C160.509 2.15962 161.431 2.12176 162.297 2.09201C163.219 2.06226 164.038 2.04874 164.806 2.04874C166.573 2.05555 168.335 2.23673 170.067 2.58963C171.899 2.94123 173.655 3.61615 175.251 4.58285C176.895 5.61423 178.262 7.03082 179.235 8.7099C179.683 9.47332 180.031 10.2914 180.271 11.1439C180.488 10.0127 180.87 8.91937 181.404 7.89855C182.243 6.34876 183.459 5.0361 184.941 4.08251C186.313 3.19794 187.857 2.61615 189.471 2.37598C190.932 2.14524 192.409 2.02859 193.888 2.0271C195.824 2.0271 197.585 2.07848 199.121 2.18396C200.657 2.28944 201.879 2.39762 202.821 2.51932C203.459 2.5973 204.056 2.87678 204.524 3.31714C204.813 3.58249 205.041 3.90674 205.193 4.2679C205.345 4.62906 205.418 5.0187 205.406 5.41042V11.9282C205.418 12.3198 205.353 12.7099 205.213 13.0761C205.074 13.4423 204.864 13.7774 204.595 14.0621L204.573 14.0837C204.277 14.4024 203.918 14.6566 203.518 14.8302C203.929 14.9454 204.302 15.1664 204.6 15.4711C204.861 15.7117 205.068 16.0047 205.208 16.3309C205.348 16.6572 205.417 17.0094 205.412 17.3643V23.4683C205.421 23.8461 205.353 24.2219 205.214 24.5732C205.075 24.9245 204.866 25.2441 204.6 25.5129C204.337 25.7868 204.022 26.0042 203.672 26.1516C203.322 26.299 202.946 26.3734 202.566 26.3702V26.3702C202.937 26.3637 203.306 26.4316 203.65 26.5697C203.995 26.7079 204.308 26.9136 204.572 27.1747C204.835 27.4358 205.044 27.7471 205.185 28.0901C205.327 28.4331 205.398 28.801 205.395 29.1721V35.7007C205.405 36.0914 205.331 36.4795 205.177 36.8388C205.024 37.1982 204.795 37.5202 204.506 37.7832C204.042 38.2214 203.451 38.5008 202.818 38.581C201.882 38.7 200.635 38.8109 199.115 38.9137C197.596 39.0164 195.821 39.0651 193.89 39.0651ZM165.023 16.6341C165.514 16.6386 165.993 16.486 166.391 16.1986C166.445 16.0235 166.468 15.8407 166.461 15.6577V15.3413C166.463 15.2183 166.455 15.0952 166.437 14.9735C166.218 14.8518 165.866 14.7409 165.023 14.7409H164.298V16.6341H165.023ZM133.678 39.0651C131.895 39.0656 130.116 38.9109 128.361 38.6027C126.483 38.2847 124.699 37.5571 123.135 36.4715C121.454 35.2778 120.12 33.6596 119.268 31.7819C118.584 30.2823 118.14 28.6841 117.954 27.0464C117.908 28.4634 117.623 29.8625 117.11 31.1842C116.519 32.7155 115.595 34.0965 114.405 35.2275C113.075 36.456 111.512 37.4043 109.808 38.0158C107.985 38.7054 105.789 39.0543 103.276 39.0543C101.446 39.0696 99.6164 38.9431 97.8052 38.6757C96.3188 38.4534 94.8501 38.1253 93.4104 37.6939C92.9295 37.5663 92.4789 37.3438 92.0852 37.0395C91.7501 36.7868 91.478 36.46 91.2903 36.0846C91.1027 35.7093 91.0045 35.2955 91.0034 34.8759V28.4365C91.0099 27.8147 91.1979 27.2084 91.5443 26.6921C91.784 26.3241 92.1139 26.0236 92.5026 25.8191C92.8912 25.6146 93.3257 25.5129 93.7647 25.5237C93.9314 25.524 94.0978 25.5376 94.2623 25.5643C94.6977 25.6184 95.2792 25.6779 95.9905 25.7482L98.4245 25.9862C99.1629 26.0592 99.8579 26.116 100.531 26.1647L96.1474 23.6225C95.047 22.9996 94.0385 22.2268 93.1508 21.3264C92.3835 20.5364 91.7365 19.6379 91.2306 18.6597C90.76 17.7409 90.4213 16.7604 90.2245 15.747C90.0425 14.7868 89.9519 13.8115 89.9541 12.8343C89.9471 11.4673 90.1655 10.1086 90.6004 8.81267C91.0802 7.40686 91.9193 6.15099 93.0345 5.16972C94.289 4.09652 95.7576 3.30274 97.3427 2.84115C99.0547 2.30025 101.094 2.0298 103.563 2.0298C104.515 2.0298 105.521 2.06496 106.635 2.14069C107.704 2.21641 108.715 2.31107 109.729 2.43277C110.744 2.55448 111.609 2.68159 112.474 2.83845C113.173 2.96165 113.864 3.12053 114.546 3.31444C115.025 3.44516 115.467 3.68386 115.839 4.0122C116.138 4.2635 116.373 4.5832 116.522 4.94427C116.672 5.30533 116.733 5.69713 116.699 6.08654V12.5476V12.599C116.782 13.1548 116.687 13.7227 116.428 14.2217C116.225 14.6124 115.917 14.939 115.539 15.1648C115.16 15.3907 114.727 15.5071 114.286 15.5009C114.129 15.5006 113.972 15.4888 113.816 15.4657C113.256 15.4089 112.564 15.3467 111.733 15.2791C110.903 15.2115 109.965 15.1358 109.005 15.0628H108.937L111.336 16.3312C113.613 17.5374 115.301 19.0194 116.355 20.7395C117.07 21.9168 117.552 23.2206 117.775 24.5799C117.775 24.4744 117.775 24.3662 117.775 24.2607V5.35903C117.785 4.97184 117.88 4.59158 118.054 4.24524C118.227 3.8989 118.475 3.59497 118.779 3.35501L118.827 3.30903C119.412 2.80517 120.166 2.54137 120.937 2.5707H129.364C129.73 2.5643 130.094 2.63233 130.433 2.77068C130.772 2.90903 131.079 3.1148 131.337 3.37553C131.594 3.63626 131.795 3.94651 131.929 4.28747C132.063 4.62842 132.126 4.99298 132.114 5.35903V24.2445C132.116 24.7749 132.19 25.3026 132.333 25.8131C132.376 25.945 132.452 26.064 132.553 26.1593C132.6 26.2106 132.663 26.2464 132.731 26.2621C133.044 26.3395 133.366 26.3741 133.688 26.3648C134.004 26.3707 134.32 26.3362 134.627 26.2621C134.7 26.248 134.767 26.2121 134.819 26.1593C134.886 26.0513 134.934 25.9323 134.96 25.8077C135.067 25.2939 135.11 24.7689 135.089 24.2445V5.35903C135.092 4.98613 135.17 4.61758 135.319 4.27584C135.468 3.9341 135.685 3.62632 135.957 3.37123C136.227 3.1038 136.548 2.89395 136.9 2.75447C137.253 2.61498 137.631 2.54878 138.01 2.55988H146.44C146.789 2.55057 147.136 2.61108 147.461 2.73788C147.786 2.86467 148.083 3.05518 148.333 3.29821C148.611 3.55088 148.829 3.86185 148.972 4.20881C149.115 4.55577 149.18 4.93011 149.161 5.30494V24.2364C149.161 27.5359 148.758 29.9321 147.89 31.7765C146.884 33.9131 145.71 35.4032 144.193 36.4661C142.636 37.5464 140.862 38.2729 138.995 38.5945C137.239 38.9056 135.46 39.063 133.678 39.0651V39.0651ZM226.096 38.8109C225.633 38.8248 225.174 38.7305 224.754 38.5357C224.334 38.3408 223.966 38.0508 223.678 37.6885C223.475 37.4072 223.3 37.1064 223.156 36.7906L223.11 36.7014L220.281 31.1545V35.7521C220.298 36.1406 220.238 36.5287 220.104 36.8937C219.97 37.2588 219.764 37.5933 219.499 37.8779L219.448 37.9319C219.207 38.2056 218.912 38.4261 218.582 38.5793C218.251 38.7325 217.892 38.8151 217.528 38.8217H209.103C208.316 38.7874 207.568 38.4738 206.991 37.9374C206.679 37.6617 206.426 37.3262 206.247 36.9508C206.068 36.5754 205.966 36.1678 205.947 35.7521V8.25555C205.957 7.60676 206.048 6.96177 206.217 6.33536L206.258 6.15686C206.444 5.44529 206.799 4.78928 207.294 4.24478C207.769 3.68816 208.383 3.26656 209.073 3.02235C209.673 2.81095 210.293 2.66143 210.923 2.57611C211.343 2.5112 211.946 2.449 212.757 2.3868C213.517 2.3273 214.353 2.2705 215.272 2.21101C216.192 2.15151 217.141 2.10823 218.106 2.07848C219.072 2.04874 219.929 2.03521 220.7 2.03521C222.804 2.01725 224.904 2.21206 226.969 2.61668C228.82 2.96805 230.582 3.68422 232.154 4.72348C233.665 5.7537 234.869 7.17311 235.64 8.8316C236.405 10.4543 236.778 12.3988 236.778 14.8221V15.6875C236.804 16.9569 236.627 18.2223 236.254 19.4359C235.933 20.4788 235.462 21.4692 234.855 22.3757C234.298 23.1956 233.624 23.9307 232.857 24.5582L232.516 24.8287L237.606 34.4296L237.638 34.4891C237.853 34.9213 237.968 35.3965 237.974 35.8792C237.978 36.2726 237.9 36.6624 237.745 37.0241C237.591 37.3858 237.363 37.7115 237.076 37.9806C236.571 38.4958 235.887 38.7962 235.166 38.819L226.096 38.8109ZM221.639 16.0932C222.236 16.0932 222.401 15.9688 222.401 15.9688C222.401 15.9688 222.45 15.9174 222.45 15.7308V14.7842C222.181 14.7513 221.91 14.7368 221.639 14.7409H220.286V16.0932H221.639Z" fill="white"/>
<path d="M65.0593 4.05816C69.1089 3.9995 73.0169 5.54725 75.9282 8.36276C78.8395 11.1783 80.5171 15.0323 80.5939 19.0816C80.5939 19.2358 80.5939 19.3521 80.5939 19.5197V64.728C80.5968 68.8547 78.963 72.8141 76.0509 75.7379C73.1387 78.6617 69.1859 80.3112 65.0593 80.3248H19.851C11.8295 80.3248 5.10608 74.2208 4.2731 66.4238C4.17206 65.8626 4.09985 65.2966 4.05674 64.728V19.5197C4.09715 15.9716 5.35127 12.5442 7.61044 9.80791C8.29522 9.01707 9.05314 8.29266 9.8741 7.64431C12.6721 5.30864 16.2063 4.03829 19.851 4.05816H65.0593ZM193.888 4.05816C195.79 4.05816 197.488 4.10864 198.983 4.20961C200.479 4.31238 201.669 4.41785 202.561 4.53415C202.782 4.55829 202.988 4.65316 203.151 4.8046C203.232 4.88158 203.295 4.97619 203.334 5.08118C203.374 5.18618 203.389 5.29879 203.378 5.4104V11.9282C203.392 12.181 203.311 12.4299 203.151 12.626C202.978 12.7991 202.807 12.983 202.577 12.983H193.863C193.323 12.983 192.876 12.983 192.679 13.1696C192.542 13.2971 192.436 13.4538 192.369 13.628C192.301 13.8022 192.274 13.9895 192.289 14.1757V16.7693H202.566H202.783C202.849 16.7638 202.915 16.7731 202.977 16.7965C203.038 16.8199 203.094 16.8568 203.14 16.9045C203.215 16.9576 203.275 17.0289 203.315 17.1117C203.354 17.1945 203.372 17.2861 203.367 17.3778V23.4683C203.373 23.5799 203.356 23.6916 203.317 23.7963C203.278 23.901 203.218 23.9965 203.14 24.0768C203.069 24.1591 202.981 24.2253 202.882 24.271C202.783 24.3167 202.675 24.3408 202.566 24.3419H192.289V26.9246C192.264 27.3431 192.404 27.7547 192.679 28.0713C193.035 28.3134 193.461 28.4287 193.89 28.3986H202.566C202.672 28.3899 202.778 28.4045 202.877 28.4414C202.976 28.4784 203.066 28.5367 203.14 28.6122C203.217 28.6828 203.277 28.7697 203.317 28.8665C203.356 28.9634 203.373 29.0677 203.367 29.1721V35.7007C203.375 35.8089 203.359 35.9174 203.319 36.0184C203.28 36.1195 203.219 36.2105 203.14 36.2849C202.984 36.4367 202.782 36.5319 202.566 36.5553C201.674 36.6689 200.476 36.7798 198.98 36.8799C197.485 36.9799 195.781 37.0313 193.88 37.0313C192.505 37.0298 191.132 36.9213 189.774 36.7068C188.443 36.5109 187.168 36.0323 186.037 35.3032C184.843 34.5377 183.862 33.4826 183.186 32.2363C182.48 30.9084 182.002 29.1369 182.002 26.9192V14.1757C182.002 11.958 182.48 10.1865 183.186 8.85863C183.861 7.61202 184.841 6.55685 186.034 5.79174C187.165 5.06263 188.44 4.58404 189.772 4.3881C191.133 4.17137 192.509 4.06105 193.888 4.05816V4.05816ZM164.806 4.05816C166.442 4.06227 168.072 4.22897 169.674 4.55578C171.273 4.86387 172.804 5.45654 174.194 6.30559C175.557 7.16293 176.689 8.34132 177.49 9.73759C178.356 11.1926 178.767 13.056 178.767 15.3332V15.6361C178.767 17.8835 178.35 19.7361 177.488 21.1884C176.678 22.5956 175.54 23.7853 174.169 24.6556C172.795 25.5125 171.277 26.1127 169.688 26.427C168.141 26.7495 166.565 26.9153 164.985 26.9219C164.552 26.9219 164.128 26.9219 163.768 26.903C163.408 26.8841 162.802 26.8651 162.261 26.8381V35.7413C162.285 35.9891 162.213 36.2365 162.061 36.4336C161.888 36.6067 161.742 36.7825 161.52 36.7825H153.223C152.986 36.7516 152.761 36.6583 152.571 36.5121C152.475 36.4429 152.397 36.3518 152.344 36.2464C152.29 36.1411 152.262 36.0245 152.263 35.9063V8.25553C152.26 7.70331 152.32 7.15252 152.441 6.6139C152.529 6.22348 152.709 5.85981 152.966 5.55374C153.213 5.26854 153.53 5.05234 153.886 4.9263C154.355 4.76256 154.84 4.64658 155.333 4.58012C155.873 4.49628 156.539 4.42326 157.299 4.36376C158.059 4.30427 158.878 4.25829 159.733 4.21502C160.587 4.17175 161.469 4.13659 162.348 4.10684C163.227 4.07709 164.038 4.06357 164.782 4.06357L164.806 4.05816ZM162.27 18.6624H165.023C165.938 18.6688 166.832 18.3848 167.576 17.8511C168.255 17.3913 168.49 16.5718 168.49 15.6496V15.3413C168.49 14.3623 168.255 13.7186 167.576 13.2913C166.897 12.864 166.115 12.7125 165.023 12.7125H162.27V18.6624ZM103.566 4.05816C104.485 4.05816 105.459 4.09331 106.5 4.16634C107.541 4.23936 108.529 4.33131 109.494 4.43679C110.46 4.54226 111.322 4.68289 112.115 4.82623C112.753 4.93852 113.385 5.08295 114.008 5.25895C114.21 5.31404 114.396 5.41806 114.549 5.56185C114.722 5.70519 114.676 5.89451 114.676 6.12168V12.5773C114.676 12.8478 114.757 13.0587 114.657 13.2453C114.629 13.3153 114.579 13.3743 114.515 13.4134C114.45 13.4524 114.375 13.4694 114.3 13.4617C114.225 13.4599 114.15 13.4527 114.075 13.44C113.5 13.3841 112.779 13.3192 111.912 13.2453C111.049 13.175 110.132 13.102 109.167 13.029C108.201 12.9559 107.23 12.8991 106.251 12.8559C105.272 12.8126 104.377 12.7937 103.574 12.7937C103.198 12.7937 102.952 12.864 102.838 13.01C102.726 13.1422 102.665 13.31 102.665 13.4833C102.669 13.5906 102.696 13.6959 102.742 13.7926C102.789 13.8894 102.855 13.9756 102.936 14.0458C103.348 14.3686 103.797 14.641 104.274 14.8572L110.397 18.1215C112.355 19.16 113.767 20.3843 114.633 21.7942C115.518 23.2829 115.967 24.9903 115.928 26.7218C115.926 28.0081 115.684 29.2827 115.217 30.481C114.73 31.7344 113.969 32.8634 112.991 33.7859C111.859 34.8274 110.528 35.6288 109.078 36.1416C107.48 36.7474 105.543 37.0503 103.266 37.0503C101.546 37.0615 99.8278 36.9385 98.1271 36.6825C96.7227 36.4739 95.3353 36.1639 93.9757 35.7548C93.7463 35.698 93.531 35.5949 93.3429 35.4519C93.2501 35.3898 93.1736 35.3063 93.1199 35.2083C93.0663 35.1104 93.037 35.001 93.0345 34.8894V28.4365C93.0408 28.2043 93.114 27.9788 93.2455 27.7874C93.3037 27.7073 93.3816 27.6436 93.4716 27.6024C93.5616 27.5612 93.6607 27.5438 93.7593 27.5521C93.8318 27.5535 93.9041 27.5598 93.9757 27.571C94.4355 27.6305 95.0404 27.6954 95.7904 27.7657L98.2245 28.0037C99.1043 28.0903 99.9833 28.1624 100.861 28.2201C101.738 28.2796 102.538 28.3066 103.26 28.3066C103.893 28.3066 104.318 28.184 104.534 27.9388C104.759 27.6669 104.874 27.3204 104.856 26.9679C104.856 26.7372 104.772 26.5143 104.621 26.3405C104.332 26.0565 104.004 25.816 103.647 25.6265L97.1562 21.8672C96.2213 21.3397 95.364 20.6854 94.6086 19.9227C93.9778 19.2773 93.4465 18.5417 93.0318 17.7402C92.6503 16.9911 92.3771 16.1916 92.2205 15.3656C92.0602 14.5314 91.9805 13.6837 91.9825 12.8342C91.976 11.6888 92.1588 10.5503 92.5234 9.46444C92.8895 8.38781 93.5321 7.42627 94.3868 6.67611C95.4258 5.79879 96.6401 5.15336 97.9486 4.78296C99.4469 4.29976 101.319 4.05816 103.566 4.05816ZM220.7 4.05816C222.667 4.04021 224.63 4.22144 226.561 4.59906C228.148 4.89576 229.661 5.50627 231.01 6.39484C232.225 7.22248 233.192 8.36482 233.809 9.69973C234.458 11.0682 234.75 12.7747 234.75 14.8193V15.6875C234.775 16.7411 234.632 17.7919 234.325 18.8003C234.065 19.658 233.681 20.4733 233.187 21.2209C232.742 21.8858 232.201 22.4818 231.583 22.9896C231.044 23.4298 230.452 23.8022 229.822 24.0984L235.81 35.387C235.889 35.5416 235.933 35.7113 235.94 35.8846C235.943 35.9964 235.924 36.1078 235.883 36.2119C235.842 36.316 235.78 36.4108 235.702 36.4904C235.563 36.6523 235.371 36.7604 235.161 36.796H226.096C225.945 36.8088 225.793 36.7864 225.652 36.7305C225.511 36.6747 225.385 36.587 225.284 36.4742C225.144 36.2629 225.021 36.0404 224.916 35.8089L219.775 25.6941H218.253V35.7413C218.279 35.9877 218.212 36.2351 218.063 36.4336C217.89 36.6067 217.76 36.7825 217.522 36.7825H209.103C208.827 36.7489 208.569 36.6265 208.368 36.4336C208.157 36.258 208.018 36.012 207.975 35.7413V8.25553C207.998 7.69927 208.089 7.14789 208.246 6.6139C208.362 6.21753 208.571 5.85428 208.854 5.55374C209.104 5.26641 209.425 5.04999 209.785 4.9263C210.251 4.76378 210.732 4.64782 211.221 4.58012C211.598 4.52243 212.16 4.46473 212.908 4.40704C213.66 4.35024 214.488 4.29345 215.397 4.23665C216.305 4.17986 217.228 4.13659 218.166 4.10684C219.104 4.07709 219.946 4.06357 220.697 4.06357L220.7 4.05816ZM218.263 18.1269H221.644C222.726 18.1269 223.44 17.8402 223.886 17.3643C224.289 16.9219 224.504 16.3397 224.484 15.7416V14.8761C224.484 14.127 224.332 13.6267 223.886 13.2372C223.44 12.8478 222.728 12.7125 221.633 12.7125H218.253V18.1215L218.263 18.1269ZM146.44 4.59906C146.536 4.59081 146.633 4.60537 146.722 4.64156C146.811 4.67775 146.891 4.73454 146.954 4.8073C147.143 4.97768 147.124 5.12914 147.124 5.3482V24.2445C147.124 27.0085 146.838 29.237 146.043 30.9219C145.247 32.6068 144.317 33.8968 143.019 34.8109C141.706 35.7252 140.207 36.3375 138.63 36.604C135.349 37.181 131.993 37.181 128.712 36.604C127.127 36.3386 125.62 35.7263 124.298 34.8109C122.911 33.8185 121.81 32.4769 121.107 30.9219C120.317 29.237 119.809 27.0085 119.809 24.2445V5.35902C119.809 5.12914 120.015 4.97768 120.204 4.81812C120.418 4.66435 120.679 4.59065 120.942 4.60987H129.369C129.47 4.59899 129.571 4.61221 129.665 4.64843C129.759 4.68466 129.843 4.74283 129.91 4.81812C129.98 4.88828 130.033 4.97349 130.065 5.06725C130.097 5.161 130.107 5.2608 130.094 5.35902V24.2445C130.096 24.953 130.194 25.6579 130.384 26.3405C130.517 26.8162 130.773 27.2482 131.127 27.5926C131.426 27.894 131.799 28.1105 132.209 28.2201C133.181 28.4509 134.193 28.4509 135.165 28.2201C135.582 28.1141 135.962 27.8973 136.266 27.5926C136.593 27.2406 136.821 26.8088 136.928 26.3405C137.083 25.6529 137.15 24.9488 137.129 24.2445V5.35902C137.133 5.25488 137.159 5.15284 137.206 5.05961C137.253 4.96638 137.318 4.88408 137.399 4.81812C137.48 4.74149 137.577 4.68248 137.682 4.64478C137.787 4.60709 137.899 4.59152 138.01 4.59906H146.44ZM223.28 41.4937C224.197 41.4937 225.192 41.5316 226.255 41.5965C227.318 41.6614 228.351 41.7507 229.341 41.8534C230.331 41.9562 231.234 42.0752 232.089 42.2104C232.755 42.3101 233.415 42.4464 234.066 42.6188C234.253 42.6851 234.426 42.7891 234.571 42.9244C234.645 43.0083 234.699 43.1072 234.73 43.2142C234.76 43.3212 234.767 43.4337 234.75 43.5437V48.6823C234.775 48.9266 234.733 49.1731 234.631 49.3963C234.567 49.5062 234.475 49.5971 234.364 49.6598C234.253 49.7226 234.128 49.7548 234.001 49.7533H233.898C233.525 49.7533 232.922 49.5748 232.086 49.5234C231.25 49.472 230.309 49.3151 229.254 49.2529C228.2 49.1907 227.118 49.1258 226.009 49.0744C224.9 49.023 223.921 48.996 223.072 48.996C221.609 48.996 220.578 49.2205 219.983 49.6613C219.388 50.1021 219.088 50.7837 219.088 51.7032C219.081 52.0328 219.135 52.3608 219.245 52.6714C219.365 52.9723 219.549 53.243 219.786 53.4638C220.105 53.7698 220.455 54.0417 220.83 54.2752C221.273 54.5646 221.833 54.8972 222.515 55.2704L229.049 58.7863C231.703 60.2142 233.515 61.7792 234.485 63.4813C235.462 65.2082 235.964 67.1632 235.94 69.1472C235.936 70.5224 235.694 71.8866 235.226 73.1796C234.729 74.5454 233.918 75.775 232.857 76.7684C231.603 77.9107 230.131 78.7874 228.53 79.3458C226.761 80.0111 224.582 80.3429 221.993 80.3411C220.191 80.3563 218.391 80.2543 216.603 80.0355C215.161 79.8545 213.732 79.5836 212.324 79.2241C212.053 79.1627 211.8 79.0406 211.583 78.8671C211.476 78.7907 211.388 78.6913 211.324 78.5762C211.26 78.461 211.223 78.3331 211.215 78.2018V73.1958C211.205 73.071 211.228 72.9456 211.284 72.8331C211.339 72.7207 211.424 72.6254 211.529 72.5575C211.63 72.49 211.751 72.4586 211.873 72.4683C211.992 72.4683 212.121 72.4818 212.251 72.4818H212.403C212.914 72.4818 213.62 72.4818 214.523 72.5575C214.883 72.5846 215.245 72.59 215.605 72.59H216.359C216.67 72.59 216.984 72.59 217.301 72.6116L220.029 72.7658C220.898 72.8145 221.587 72.8415 222.096 72.8415C223.864 72.8415 225.064 72.5521 225.695 71.9734C226.326 71.3946 226.641 70.4931 226.639 69.2689C226.662 68.5646 226.42 67.8775 225.96 67.3433C225.501 66.8168 224.608 66.1614 223.283 65.3771L216.238 61.1933C215.179 60.5755 214.195 59.8387 213.303 58.9972C212.581 58.3071 211.961 57.5165 211.464 56.6497C211.015 55.8616 210.688 55.0099 210.493 54.1237C210.309 53.2424 210.218 52.344 210.223 51.4436C210.211 50.114 210.427 48.7923 210.861 47.5356C211.296 46.3114 212.042 45.2211 213.025 44.3713C214.203 43.3861 215.577 42.6641 217.057 42.2537C218.723 41.7435 220.797 41.4874 223.277 41.4856L223.28 41.4937ZM107.552 41.4856C109.735 41.4603 111.916 41.6059 114.075 41.9211C115.879 42.2104 117.232 42.462 118.181 42.6621C118.762 42.7649 118.992 43.0191 118.992 43.4275V48.8364C118.992 49.1069 118.976 49.4152 118.841 49.499C118.706 49.5829 118.57 49.7533 118.335 49.7533H118.186C116.961 49.4828 115.428 49.4828 113.589 49.3719C111.75 49.261 109.743 49.1015 107.566 49.1015C106.622 49.0906 105.683 49.2284 104.783 49.5099C103.961 49.7743 103.227 50.2599 102.663 50.9135C102.024 51.6956 101.57 52.6118 101.335 53.5936C101 54.9633 100.846 56.3706 100.875 57.7802V64.1601C100.875 65.9288 101.043 67.3757 101.4 68.5008C101.674 69.4677 102.139 70.3698 102.768 71.1539C103.254 71.7516 103.889 72.2099 104.61 72.4818C105.216 72.7089 105.856 72.8297 106.503 72.8388C107.898 72.8388 109.259 72.7874 110.341 72.6847V60.9445C110.375 60.6859 110.509 60.451 110.714 60.29C110.821 60.1983 110.945 60.129 111.079 60.0863C111.214 60.0435 111.355 60.0282 111.495 60.0412H118.029C118.155 60.03 118.282 60.0465 118.4 60.0895C118.519 60.1325 118.627 60.2009 118.716 60.29C118.807 60.3723 118.878 60.4736 118.925 60.5868C118.972 60.7 118.993 60.8221 118.987 60.9445V78.0963C118.987 78.7427 118.673 79.1349 117.994 79.2701C116.596 79.5405 115.019 79.7894 113.169 80.0111C110.984 80.2489 108.786 80.3591 106.587 80.3411C105.549 80.3339 104.514 80.2316 103.496 80.0355C102.369 79.825 101.272 79.4828 100.226 79.0159C99.1153 78.5126 98.0782 77.8612 97.1427 77.0795C96.1128 76.2183 95.2224 75.2029 94.5031 74.0694C93.6729 72.7525 93.0524 71.3146 92.664 69.8071C92.1783 67.9433 91.9391 66.0239 91.9527 64.0979V57.7694C91.9527 54.5024 92.4585 51.8195 93.378 49.7289C94.1865 47.8074 95.4353 46.1029 97.0237 44.7527C98.4786 43.5399 100.186 42.6676 102.022 42.1996C103.829 41.7287 105.688 41.4879 107.555 41.4829L107.552 41.4856ZM163.868 41.4829C165.229 41.4829 166.428 41.5082 167.465 41.5587C168.503 41.61 169.409 41.6695 170.194 41.7371C170.978 41.8048 171.646 41.8724 172.209 41.94C172.771 42.0076 173.261 42.0779 173.707 42.1455C174.386 42.2483 174.71 42.5891 174.71 43.1678V47.9142C174.714 48.0474 174.689 48.1798 174.639 48.3031C174.589 48.4264 174.514 48.538 174.418 48.6309C174.329 48.7276 174.222 48.8049 174.101 48.858C173.981 48.9111 173.852 48.9387 173.72 48.9392H163.351C162.161 48.9392 161.188 49.1853 160.698 49.6775C160.209 50.1698 159.836 51.0947 159.836 52.4199V57.3367H173.493C173.577 57.3285 173.661 57.3399 173.739 57.3699C173.818 57.4 173.888 57.4478 173.945 57.5097C174.028 57.5793 174.093 57.6689 174.132 57.7701C174.171 57.8714 174.184 57.9809 174.169 58.0885V62.935C174.2 63.2166 174.12 63.4991 173.945 63.722C173.739 63.9248 173.582 64.0979 173.309 64.0979H159.836V69.3689C159.836 70.6941 160.209 71.6975 160.704 72.1897C161.199 72.682 162.167 73.0227 163.351 73.0227H173.715C173.84 73.005 173.967 73.0149 174.088 73.0519C174.208 73.0888 174.319 73.1518 174.413 73.2364C174.506 73.3103 174.582 73.4049 174.632 73.5129C174.683 73.6209 174.708 73.7392 174.705 73.8584V78.6075C174.705 79.2187 174.378 79.5757 173.696 79.6893C172.812 79.8272 171.641 79.9597 170.161 80.122C168.682 80.2843 166.556 80.3519 163.8 80.3519C162.219 80.3572 160.64 80.2205 159.084 79.9435C157.653 79.705 156.29 79.1657 155.084 78.3614C153.871 77.5174 152.907 76.3629 152.293 75.0186C151.614 73.5636 151.181 71.6705 151.181 69.3689V52.4199C151.181 50.1076 151.614 48.236 152.298 46.8054C152.933 45.4672 153.912 44.322 155.135 43.487C156.342 42.6803 157.706 42.1401 159.138 41.9021C160.699 41.6281 162.282 41.4923 163.868 41.4964V41.4829ZM136.304 41.4964C137.663 41.4964 138.862 41.5217 139.901 41.5722C140.939 41.6227 141.848 41.6822 142.627 41.7507C143.408 41.821 144.076 41.8859 144.636 41.9535C145.196 42.0211 145.688 42.0914 146.129 42.1591C146.811 42.2618 147.124 42.6026 147.124 43.1813V47.9277C147.131 48.0594 147.111 48.191 147.064 48.3144C147.018 48.4377 146.946 48.5501 146.854 48.6444C146.767 48.741 146.661 48.8183 146.543 48.8714C146.425 48.9245 146.297 48.9522 146.167 48.9527H135.795C134.603 48.9527 133.756 49.1988 133.264 49.6911C132.772 50.1833 132.52 51.0947 132.52 52.4199V57.3367H145.929C146.011 57.3302 146.093 57.3424 146.169 57.3724C146.246 57.4024 146.314 57.4494 146.37 57.5097C146.452 57.58 146.515 57.67 146.552 57.7713C146.589 57.8726 146.6 57.9818 146.583 58.0885V62.935C146.618 63.2151 146.541 63.4975 146.37 63.722C146.167 63.9248 146.018 64.0979 145.748 64.0979H132.52V69.3689C132.52 70.6941 132.772 71.6975 133.264 72.1897C133.756 72.682 134.603 73.0227 135.795 73.0227H146.156C146.279 73.0051 146.405 73.0152 146.524 73.0521C146.643 73.0891 146.752 73.152 146.843 73.2364C146.933 73.3119 147.005 73.4074 147.052 73.5154C147.099 73.6234 147.12 73.7408 147.114 73.8584V78.6075C147.114 79.2187 146.797 79.5757 146.116 79.6893C145.231 79.8272 144.071 79.9597 142.6 80.122C141.129 80.2843 138.995 80.3519 136.239 80.3519C134.657 80.3572 133.077 80.2205 131.519 79.9435C130.089 79.7055 128.726 79.1662 127.52 78.3614C126.303 77.5192 125.337 76.3643 124.723 75.0186C124.039 73.5636 123.595 71.6705 123.595 69.3689V52.4199C123.595 50.1076 124.039 48.236 124.726 46.8054C125.363 45.4662 126.345 44.3208 127.571 43.487C128.777 42.6813 130.14 42.1411 131.571 41.9021C133.134 41.6282 134.717 41.4924 136.304 41.4964V41.4964ZM186.945 42.1915C187.035 42.1818 187.126 42.1913 187.212 42.2193C187.297 42.2473 187.376 42.2931 187.443 42.3538C187.53 42.4192 187.599 42.5062 187.643 42.6062C187.686 42.7063 187.703 42.8159 187.692 42.9244V59.1514L198.978 42.6783C199.216 42.2699 199.648 42.1834 200.159 42.1834H207.975C208.516 42.1834 208.787 42.251 208.787 42.6269C208.768 42.8693 208.679 43.1012 208.533 43.2949L196.384 60.4982L208.584 78.8482C208.716 79.0214 208.787 79.2334 208.787 79.4513C208.787 79.7894 208.552 80.0463 208.073 80.0463H199.291C199.026 80.0384 198.771 79.9358 198.575 79.7569C198.398 79.5755 198.242 79.3751 198.109 79.1592L187.692 62.3237V78.8617C187.717 79.1542 187.628 79.4451 187.443 79.6731C187.237 79.8786 187.059 80.0652 186.786 80.0652H180.1C179.814 80.0341 179.55 79.8936 179.365 79.6731C179.157 79.454 179.04 79.1639 179.037 78.8617V42.9244C179.037 42.654 179.159 42.5404 179.365 42.3538C179.444 42.2908 179.534 42.244 179.631 42.2162C179.728 42.1883 179.83 42.1799 179.93 42.1915H186.945ZM65.0593 0.00141786H19.851C15.2539 -0.00825053 10.7997 1.59806 7.26697 4.53956C6.24075 5.35395 5.29687 6.26703 4.44889 7.26569C1.53886 10.8843 0 15.1222 0 19.5197V64.728C0.00939988 65.3155 0.0700301 65.901 0.181201 66.4778C0.205541 66.6239 0.232586 66.7753 0.2407 66.8565C0.762735 71.662 3.04964 76.1028 6.65846 79.3188C10.2807 82.5762 14.9795 84.3794 19.851 84.3816H65.0593C70.2616 84.3673 75.2458 82.29 78.9186 78.6056C82.5914 74.9212 84.6528 69.9304 84.6506 64.728V19.5197C84.6506 19.3412 84.6506 19.1871 84.6506 19.0167V18.9545C84.5433 13.8506 82.4246 8.99559 78.7555 5.44605C75.0864 1.8965 70.1639 -0.060323 65.0593 0.00141786V0.00141786ZM193.888 0.00141786C192.303 0.00291078 190.72 0.127694 189.155 0.374638C187.259 0.65917 185.446 1.34418 183.835 2.38408C182.299 3.37821 180.997 4.6952 180.022 6.24339C179.008 4.89386 177.751 3.74475 176.317 2.85466C174.517 1.75499 172.535 0.985657 170.464 0.582884C168.602 0.202981 166.707 0.00821094 164.806 0.00141786C164.017 0.00141786 163.184 0.0149403 162.232 0.0446897C161.353 0.0744392 160.452 0.112302 159.549 0.158278C158.646 0.204255 157.815 0.252936 157.012 0.312434H156.99C156.106 0.380047 155.368 0.463886 154.729 0.563952C153.964 0.665942 153.21 0.847214 152.482 1.10485C151.668 1.3993 150.924 1.85979 150.297 2.4571C150.115 2.22495 149.914 2.00953 149.694 1.81343C148.819 0.983177 147.654 0.527126 146.448 0.542316H138.01C137.366 0.529154 136.726 0.645408 136.128 0.884189C135.529 1.12297 134.985 1.47942 134.527 1.93243C134.173 2.28253 133.872 2.68144 133.632 3.11699C133.407 2.67946 133.115 2.27978 132.766 1.93243C132.323 1.48322 131.794 1.12844 131.21 0.889511C130.626 0.650587 130 0.532478 129.369 0.542316H120.942C119.66 0.509892 118.413 0.967331 117.456 1.82154L117.434 1.84047C117.267 1.9884 117.108 2.1455 116.958 2.31105C116.409 1.8734 115.776 1.55226 115.098 1.36719C114.356 1.1553 113.603 0.982874 112.842 0.850629C111.934 0.685654 110.995 0.545021 109.975 0.423319C108.956 0.301617 107.882 0.20155 106.784 0.12312C105.616 0.0446897 104.566 0.00682684 103.566 0.00682684C100.878 0.00682684 98.6383 0.301616 96.7235 0.910127C94.8659 1.459 93.1471 2.39862 91.6823 3.66601C90.316 4.88278 89.2906 6.43485 88.7074 8.16899C88.2042 9.67271 87.9502 11.2486 87.9555 12.8342C87.9549 13.9423 88.059 15.048 88.2665 16.1364C88.4997 17.335 88.9003 18.4949 89.4565 19.5819C90.0457 20.7315 90.8001 21.7884 91.6958 22.7192C91.9879 23.0239 92.3043 23.3223 92.6451 23.6143C91.4886 23.8799 90.4809 24.585 89.8351 25.5805C89.28 26.4299 88.9823 27.4217 88.9778 28.4365V34.8894C88.9789 35.6196 89.1487 36.3398 89.4737 36.9937C89.7988 37.6476 90.2705 38.2177 90.852 38.6594C91.4449 39.1184 92.1221 39.4565 92.8452 39.6547C93.9122 39.9756 94.9955 40.2392 96.0906 40.4444C93.2209 42.2929 90.9816 44.9709 89.6702 48.1225C88.4991 50.7945 87.9041 54.048 87.9041 57.7937V64.0979C87.8886 66.3787 88.1714 68.6517 88.7452 70.8591C89.2422 72.7726 90.0332 74.5973 91.09 76.2681C92.035 77.7537 93.2047 79.0839 94.5572 80.2113C95.7797 81.2306 97.1354 82.0786 98.5869 82.7318C99.9262 83.3247 101.33 83.7586 102.771 84.0246C104.031 84.2654 105.311 84.3903 106.595 84.3978C108.955 84.415 111.315 84.2949 113.662 84.0381C115.555 83.8109 117.229 83.554 118.779 83.2511H118.792C119.747 83.0804 120.633 82.6439 121.351 81.9919C122.069 81.3399 122.588 80.4987 122.849 79.5649C123.54 80.382 124.339 81.1017 125.223 81.7041C126.902 82.8306 128.799 83.5883 130.792 83.9272C132.587 84.2461 134.407 84.4045 136.231 84.4005C139.154 84.4005 141.369 84.3194 143.008 84.149C144.539 83.9921 145.756 83.8407 146.727 83.6919C148.839 83.3701 150.4 82.0179 150.951 80.1518C151.51 80.7307 152.126 81.2509 152.79 81.7041C154.468 82.8297 156.365 83.5873 158.356 83.9272C160.151 84.246 161.972 84.4044 163.795 84.4005C166.718 84.4005 168.933 84.3194 170.572 84.149C172.125 83.9894 173.347 83.8407 174.31 83.6892C175.171 83.5658 175.99 83.2405 176.701 82.74C177.617 83.6146 178.834 84.1052 180.1 84.1111H186.786C187.448 84.0995 188.102 83.9532 188.706 83.6812C189.311 83.4092 189.853 83.0172 190.302 82.529V82.529C190.775 82.0461 191.146 81.4726 191.392 80.8429C191.638 80.2132 191.755 79.5403 191.735 78.8644V76.5927L194.645 81.3012L194.713 81.4039C195.031 81.9156 195.417 82.3822 195.859 82.7913C196.801 83.6395 198.024 84.1096 199.291 84.1111H208.07C209.164 84.12 210.229 83.7587 211.091 83.0861L211.321 83.1483C212.89 83.5508 214.482 83.8543 216.089 84.057C218.054 84.2984 220.032 84.4122 222.012 84.3978C225.076 84.3978 227.756 83.9759 229.974 83.1429C232.08 82.3911 234.012 81.2209 235.653 79.7028C237.171 78.28 238.333 76.5196 239.045 74.5643C239.673 72.83 239.996 70.9999 239.999 69.1553C240.024 66.4656 239.338 63.8171 238.012 61.4772C236.659 59.0838 234.344 57.0365 230.98 55.2217L227.204 53.1988C227.821 53.2312 228.419 53.2664 228.989 53.3043C229.433 53.334 229.871 53.3827 230.342 53.4368C230.812 53.4909 231.331 53.5531 231.845 53.5855C232.089 53.6042 232.332 53.6367 232.573 53.6829C233.012 53.7676 233.457 53.8137 233.903 53.8208H234.006C234.785 53.8214 235.553 53.6318 236.242 53.2684C236.931 52.905 237.521 52.3789 237.96 51.7357C238.556 50.8382 238.853 49.7749 238.807 48.6985V43.5437C238.829 42.9246 238.73 42.3071 238.513 41.7266C238.297 41.146 237.969 40.6138 237.546 40.1604C237.86 39.9664 238.154 39.7418 238.423 39.4897L238.442 39.4735C238.936 39.0144 239.329 38.4576 239.597 37.8384C239.865 37.2192 240.001 36.5511 239.997 35.8765C239.991 35.0854 239.806 34.3059 239.456 33.5966C239.437 33.5561 239.418 33.5182 239.396 33.4776L235.069 25.3019C235.608 24.7571 236.096 24.1641 236.527 23.5305C237.242 22.4664 237.799 21.3039 238.179 20.0796C238.622 18.6585 238.834 17.1756 238.807 15.6875V14.822C238.807 12.0905 238.369 9.84577 237.471 7.95804C236.545 5.97401 235.102 4.27635 233.292 3.04397C231.501 1.85443 229.492 1.03343 227.38 0.62886C225.18 0.19537 222.942 -0.0148437 220.7 0.00141786C219.908 0.00141786 219.015 0.0149403 218.047 0.0446897C217.079 0.0744392 216.089 0.128529 215.142 0.188028C214.261 0.242118 213.406 0.301617 212.606 0.36382C211.729 0.431432 211.096 0.49634 210.612 0.569361C209.848 0.672946 209.096 0.854181 208.368 1.11026C207.626 1.38154 206.943 1.7898 206.353 2.31376C206.21 2.14046 206.054 1.97776 205.888 1.82695C205.107 1.10441 204.12 0.644738 203.064 0.512567C202.085 0.38816 200.838 0.274572 199.256 0.166392C197.674 0.0582122 195.87 0.00141786 193.888 0.00141786ZM166.326 30.9435C167.731 30.8668 169.129 30.686 170.507 30.4026C172.573 29.9898 174.547 29.2064 176.333 28.0903C176.903 27.7338 177.445 27.3351 177.956 26.8976V26.9246C177.956 29.6481 178.513 32.0632 179.616 34.1456C180.453 35.7033 181.614 37.0635 183.021 38.1348H179.93C178.806 38.1077 177.708 38.4784 176.831 39.1814C176.092 38.6318 175.227 38.2765 174.315 38.1483H174.299C173.758 38.0672 173.236 37.9968 172.703 37.9319C172.117 37.8616 171.438 37.7913 170.54 37.7129C169.71 37.6398 168.766 37.5776 167.651 37.5236C167.15 37.4983 166.616 37.4794 166.048 37.4668C166.23 36.9107 166.321 36.329 166.318 35.744V30.9435H166.326ZM114.4 37.8643C114.895 37.507 115.364 37.1167 115.806 36.696C116.691 35.8541 117.456 34.895 118.081 33.8454C119.049 35.5428 120.377 37.007 121.973 38.1348C123.073 38.9057 124.276 39.5201 125.545 39.9603L125.275 40.1388C124.397 40.7367 123.6 41.4447 122.903 42.2456C122.454 40.4417 120.991 39.0813 118.973 38.6919C117.932 38.4701 116.539 38.2186 114.711 37.9238L114.4 37.8643ZM145.569 37.9752C146.592 37.2221 147.486 36.3089 148.217 35.2707V35.9117C148.216 36.7231 148.422 37.5215 148.815 38.2313C149.208 38.9411 149.776 39.539 150.464 39.9684C150.963 40.2939 151.511 40.5368 152.087 40.6878C151.697 41.0011 151.327 41.338 150.978 41.6966C150.437 39.8224 148.869 38.4512 146.738 38.1375C146.329 38.0753 145.943 38.0212 145.558 37.9725L145.569 37.9752ZM191.749 46.0616V42.9244C191.755 42.2583 191.623 41.598 191.362 40.9853C192.208 41.0556 193.055 41.0935 193.89 41.0935C194.32 41.0935 194.742 41.0935 195.159 41.0935L191.749 46.0616ZM163.892 53.0095H173.72C174.146 53.0102 174.569 52.9556 174.981 52.8472V53.5071C174.5 53.3525 173.998 53.2749 173.493 53.2772H163.892V53.0068V53.0095ZM136.577 53.0095H146.156C146.481 53.0097 146.806 52.9779 147.124 52.9148V53.4233C146.734 53.3247 146.332 53.2756 145.929 53.2772H136.577V53.0068V53.0095ZM106.016 68.6712C105.955 68.6165 105.899 68.5577 105.846 68.4954C105.579 68.1252 105.385 67.7076 105.275 67.2649C105.124 66.7916 104.942 65.8585 104.942 64.1601V57.7802C104.913 56.7324 105.019 55.6851 105.259 54.6646C105.34 54.2753 105.501 53.9069 105.732 53.5828C105.815 53.4807 105.928 53.4062 106.054 53.3692C106.548 53.2212 107.061 53.1509 107.577 53.1609C109.069 53.1609 110.508 53.2556 111.904 53.3448C112.404 53.3773 112.894 53.4097 113.372 53.4368L114.595 53.4963C115.507 53.5087 116.417 53.5864 117.318 53.7289C117.604 53.79 117.895 53.8208 118.186 53.8208H118.34C118.745 53.8217 119.148 53.7671 119.539 53.6585V56.1954C119.049 56.0532 118.542 55.9822 118.032 55.9844H111.498C110.792 55.9589 110.088 56.0855 109.435 56.3557C108.781 56.6258 108.194 57.0332 107.712 57.5503L107.682 57.5828C106.796 58.479 106.292 59.6841 106.276 60.9445V68.7523C106.205 68.7361 106.113 68.7091 106.005 68.6712H106.016ZM201.301 60.5821L206.282 53.5233C206.342 54.021 206.426 54.5105 206.529 54.9919C206.81 56.2736 207.281 57.506 207.927 58.6483C208.615 59.8534 209.472 60.9536 210.472 61.9154C211.587 62.9769 212.821 63.9062 214.15 64.6848H214.166L221.006 68.7415C220.781 68.7415 220.538 68.7199 220.273 68.7036C219.407 68.6523 218.488 68.6009 217.53 68.5495C217.09 68.5251 216.679 68.5224 216.37 68.5224H215.616C215.37 68.5224 215.075 68.5224 214.839 68.5008C213.806 68.4251 212.998 68.4143 212.405 68.4143H212.27C212.178 68.4143 212.04 68.4007 211.875 68.4007C210.834 68.3864 209.819 68.7301 209 69.3744C208.58 69.7029 208.215 70.0964 207.919 70.54L201.301 60.5821ZM163.892 68.1546H173.309C173.881 68.1567 174.448 68.0512 174.981 67.8436V69.1012C174.567 69.0097 174.144 68.9643 173.72 68.966H163.892V68.1546ZM136.577 68.1546H145.748C146.215 68.1563 146.679 68.0861 147.124 67.9464V69.0282C146.804 68.9772 146.48 68.9536 146.156 68.9579H136.577V68.1465V68.1546Z" fill="white"/>
<path d="M80.5939 19.0627C80.4888 15.5207 79.1765 12.121 76.8745 9.42703C74.5725 6.73305 71.4191 4.90652 67.9369 4.25019C66.988 4.07204 66.0248 3.9815 65.0593 3.97974H19.851C15.73 3.98117 11.7782 5.61888 8.86418 8.53288C5.95018 11.4469 4.31247 15.3987 4.31104 19.5198V64.728C4.31033 66.769 4.71179 68.7901 5.4925 70.6758C6.27321 72.5615 7.41785 74.2749 8.86101 75.7181C10.3042 77.1612 12.0176 78.3059 13.9033 79.0866C15.789 79.8673 17.8101 80.2688 19.851 80.2681H23.7536C23.6725 75.1512 23.2749 63.914 23.2749 63.914C23.2749 63.914 11.4374 37.1909 11.9296 33.7427C12.3596 30.738 16.1621 25.402 17.1357 24.0714C17.3542 23.8498 17.6194 23.6798 17.9119 23.5738C30.477 19.2033 54.593 12.0418 62.9255 13.0127C62.9255 13.0127 58.0817 17.7754 56.7701 19.252C56.7701 19.252 68.3453 21.3047 75.972 32.5527C75.972 32.5527 66.1195 29.9239 62.9174 31.0057C62.9174 31.0057 68.5022 35.7115 70.7171 38.5459C70.7171 38.5459 62.1791 35.5898 60.3941 35.8414C60.3941 35.8414 59.6693 42.4106 60.1236 46.0562C60.4509 49.1772 60.5996 50.8621 60.1236 54.762C60.8079 56.2522 61.7463 57.9587 62.9174 59.2406C62.9174 59.2406 62.8768 60.839 62.509 61.004C62.1412 61.1689 58.7741 62.1534 57.787 62.1534C57.787 62.1534 57.7545 63.5813 57.9087 63.9194C57.9087 63.9194 57.1162 64.6063 56.8431 64.6172C56.2481 64.6388 53.449 65.5259 50.4118 62.4076C50.4118 62.4076 52.3888 65.8288 55.6153 65.9234C55.9557 66.457 56.2567 67.0147 56.5158 67.5921C56.1538 68.0061 55.6668 68.2909 55.1284 68.4035C55.1284 68.4035 52.9648 73.5041 52.5943 74.7374C52.5943 74.7374 48.5376 75.2783 47.6478 75.2783C47.0528 75.2783 40.8866 73.1147 39.2152 72.1059C40.1069 74.9098 41.1913 77.6488 42.4606 80.3032H65.0539C67.0976 80.3032 69.1213 79.9001 71.009 79.117C72.8967 78.3338 74.6113 77.186 76.0548 75.7392C77.4983 74.2925 78.6422 72.5752 79.4211 70.6857C80.2 68.7963 80.5986 66.7717 80.5939 64.728V19.5198C80.5939 19.3656 80.5939 19.2141 80.5939 19.0627ZM60.4617 49.1718V49.3746C60.5699 50.4835 60.4617 49.1718 60.4617 49.1718Z" fill="#E42618"/>
<path d="M60.4695 45.1096C58.6115 44.0278 52.9429 42.4051 51.7556 43.1624C50.5684 43.9197 50.0329 46.9487 49.9923 47.2191C48.4075 46.9839 38.6686 45.8858 34.0088 45.3639C32.3707 45.1766 30.7236 45.629 29.4111 46.6269C27.8073 47.8439 25.8818 49.426 25.9331 49.9561C26.0197 50.9324 27.9804 52.2928 28.8648 52.2116C29.879 51.0487 30.9473 49.8533 31.6802 49.0366C31.9633 48.7226 32.3152 48.4784 32.7084 48.3231C33.1015 48.1678 33.5253 48.1056 33.9465 48.1414C37.4624 48.4362 46.7577 49.2232 49.6975 49.5639C49.3757 53.1122 49.4703 56.7741 49.7678 57.7829C50.3926 59.8951 57.1754 60.3846 58.333 59.3272C58.8225 58.8809 61.8488 51.0839 62.6601 48.7796C62.7629 48.09 62.7629 46.0589 60.4641 45.1286L60.4695 45.1096ZM57.7839 56.9661C57.0294 57.6774 52.6211 57.3502 52.2181 55.9276C51.8151 54.505 51.9855 46.0589 54.0139 46.0589C56.0423 46.0589 60.4506 48.2225 60.4506 48.2225C60.4506 50.3591 58.4357 56.3603 57.7839 56.977" fill="#E42618"/>
<path d="M115.931 26.7082C115.927 27.9947 115.685 29.2693 115.217 30.4675C114.731 31.7214 113.97 32.8506 112.991 33.7724C111.86 34.8141 110.53 35.6155 109.08 36.128C107.479 36.7338 105.542 37.0367 103.268 37.0367C101.549 37.0481 99.8305 36.9251 98.1299 36.6689C96.7264 36.4603 95.3398 36.1503 93.9812 35.7412C93.7543 35.6843 93.5416 35.5812 93.3564 35.4383C93.2672 35.3745 93.1947 35.29 93.1452 35.192C93.0958 35.094 93.0708 34.9855 93.0725 34.8758V28.4364C93.074 28.2059 93.1416 27.9806 93.2672 27.7873C93.397 27.5872 93.635 27.5169 93.9812 27.571C94.4409 27.6305 95.0458 27.6954 95.7959 27.7657L98.2299 28.0037C99.1098 28.0902 99.9887 28.1623 100.867 28.22C101.743 28.2795 102.544 28.3066 103.266 28.3066C103.899 28.3066 104.323 28.184 104.54 27.9388C104.765 27.6669 104.879 27.3204 104.861 26.9679C104.861 26.7372 104.778 26.5143 104.626 26.3404C104.338 26.0565 104.01 25.816 103.652 25.6264L97.1617 21.8672C96.2268 21.3397 95.3694 20.6853 94.614 19.9227C93.9833 19.2772 93.4519 18.5417 93.0373 17.7401C92.6557 16.991 92.3826 16.1915 92.226 15.3656C92.0657 14.5314 91.986 13.6837 91.988 12.8342C91.9815 11.6888 92.1642 10.5502 92.5289 9.46439C92.8947 8.38897 93.5352 7.42779 94.3868 6.67605C95.4273 5.7993 96.6423 5.15396 97.9514 4.78291C99.4497 4.29971 101.327 4.05811 103.582 4.05811C104.502 4.05811 105.481 4.09417 106.519 4.16629C107.558 4.2384 108.558 4.32855 109.521 4.43673C110.489 4.55303 111.366 4.68284 112.158 4.82618C112.95 4.96952 113.591 5.11556 114.081 5.2589C114.298 5.31994 114.5 5.42796 114.671 5.57533C114.756 5.64124 114.825 5.72615 114.872 5.82332C114.919 5.92049 114.942 6.02725 114.941 6.13516V12.5773C114.947 12.809 114.895 13.0386 114.79 13.2453C114.687 13.4346 114.451 13.4995 114.076 13.44C113.5 13.3841 112.779 13.3192 111.912 13.2453C111.049 13.175 110.132 13.1019 109.167 13.0289C108.201 12.9559 107.23 12.8991 106.251 12.8558C105.272 12.8125 104.377 12.7936 103.574 12.7936C103.198 12.7936 102.952 12.8639 102.838 13.01C102.726 13.1422 102.665 13.31 102.665 13.4833C102.669 13.5905 102.696 13.6958 102.742 13.7926C102.789 13.8894 102.855 13.9755 102.936 14.0458C103.348 14.3686 103.798 14.641 104.274 14.8571L110.397 18.1215C112.355 19.16 113.767 20.3842 114.633 21.7942C115.519 23.2826 115.968 24.99 115.931 26.7218" fill="black"/>
<path d="M146.159 30.9218C145.476 32.4723 144.395 33.8141 143.025 34.8108C141.714 35.725 140.216 36.3374 138.641 36.6039C135.366 37.1809 132.016 37.1809 128.742 36.6039C127.166 36.3384 125.669 35.7259 124.358 34.8108C122.987 33.8149 121.906 32.4728 121.224 30.9218C120.429 29.236 120.032 27.0102 120.034 24.2444V5.35892C120.034 5.24459 120.058 5.13151 120.104 5.02711C120.151 4.92271 120.219 4.82934 120.304 4.75312C120.47 4.58502 120.695 4.48805 120.932 4.48267H129.359C129.473 4.48432 129.585 4.50914 129.689 4.55564C129.794 4.60213 129.887 4.66932 129.965 4.75312C130.049 4.83008 130.116 4.9236 130.163 5.02783C130.209 5.13207 130.234 5.24478 130.235 5.35892V24.2444C130.218 24.9494 130.291 25.6537 130.451 26.3404C130.56 26.8098 130.792 27.2419 131.122 27.5926C131.421 27.8939 131.794 28.1104 132.204 28.22C133.178 28.4508 134.192 28.4508 135.165 28.22C135.582 28.1147 135.963 27.8978 136.266 27.5926C136.597 27.2419 136.828 26.8098 136.937 26.3404C137.099 25.6539 137.172 24.9495 137.153 24.2444V5.35892C137.159 5.13158 137.251 4.91501 137.412 4.75396C137.572 4.5929 137.789 4.49966 138.016 4.49348H146.446C146.681 4.49928 146.905 4.59624 147.071 4.76393C147.157 4.83948 147.225 4.93273 147.272 5.03728C147.319 5.14184 147.342 5.25524 147.341 5.36974V24.2444C147.341 27.0084 146.945 29.2342 146.154 30.9218" fill="black"/>
<path d="M178.808 15.6441C178.808 17.8924 178.376 19.7432 177.512 21.1964C176.698 22.6005 175.557 23.7872 174.186 24.6555C172.814 25.5114 171.298 26.1116 169.712 26.4269C168.17 26.7492 166.599 26.915 165.023 26.9218C164.59 26.9218 164.192 26.9218 163.833 26.9029L162.386 26.838V35.7412C162.386 35.8551 162.361 35.9676 162.315 36.0715C162.268 36.1754 162.2 36.2684 162.115 36.3443C162.038 36.4285 161.945 36.4959 161.841 36.5424C161.736 36.589 161.624 36.6136 161.51 36.6147H153.223C153.003 36.6179 152.786 36.5578 152.598 36.4417C152.51 36.3885 152.439 36.3122 152.391 36.2212C152.343 36.1301 152.321 36.0277 152.328 35.9251V8.25544C152.316 7.70426 152.367 7.15351 152.479 6.61381C152.558 6.22557 152.728 5.86191 152.977 5.55365C153.221 5.26998 153.534 5.05389 153.886 4.92621C154.355 4.76247 154.84 4.64649 155.333 4.58003C155.873 4.4962 156.539 4.42317 157.299 4.36367C158.059 4.30418 158.878 4.2582 159.733 4.21493C160.587 4.17166 161.469 4.1365 162.348 4.10675C163.227 4.077 164.038 4.06348 164.782 4.06348C166.417 4.06759 168.048 4.23429 169.65 4.5611C171.249 4.86919 172.78 5.46186 174.169 6.31091C175.546 7.16345 176.694 8.33982 177.512 9.7375C178.374 11.1925 178.806 13.0577 178.808 15.3331V15.6441ZM168.695 15.3412C168.695 14.3622 168.356 13.6563 167.679 13.2236C166.873 12.7599 165.951 12.5357 165.023 12.5772H162.386V18.4108H165.023C165.958 18.4531 166.883 18.2117 167.679 17.7185C168.013 17.4905 168.283 17.1794 168.461 16.8157C168.64 16.4521 168.72 16.0483 168.695 15.6441V15.3412Z" fill="black"/>
<path d="M203.183 36.2794C203.015 36.4321 202.803 36.5269 202.577 36.5499C201.685 36.6635 200.487 36.7744 198.991 36.8744C197.496 36.9745 195.792 37.0259 193.891 37.0259C192.516 37.0243 191.143 36.9158 189.785 36.7013C188.453 36.5054 187.179 36.0268 186.047 35.2977C184.892 34.5255 183.954 33.4695 183.324 32.2308C182.617 30.9038 182.265 29.1315 182.267 26.9138V14.1756C182.267 11.9579 182.619 10.1856 183.324 8.85858C183.954 7.61942 184.891 6.56322 186.047 5.79169C187.179 5.06257 188.453 4.58399 189.785 4.38805C191.143 4.17175 192.516 4.06143 193.891 4.05811C195.793 4.05811 197.493 4.10859 198.991 4.20956C200.487 4.31233 201.696 4.4178 202.577 4.5341C202.803 4.55857 203.015 4.65317 203.183 4.80455C203.268 4.87631 203.336 4.96579 203.383 5.0667C203.43 5.16761 203.454 5.27752 203.454 5.38872V11.9282C203.453 12.0421 203.429 12.1546 203.383 12.2585C203.336 12.3624 203.268 12.4554 203.183 12.5313C203.106 12.6153 203.012 12.6827 202.908 12.7292C202.804 12.7757 202.691 12.8004 202.577 12.8017H193.891C193.35 12.8017 192.968 12.8937 192.765 13.0722C192.563 13.2507 192.465 13.6131 192.465 14.1729V16.4988H202.567C202.794 16.5036 203.01 16.596 203.171 16.7568C203.332 16.9176 203.424 17.1342 203.429 17.3615V23.4682C203.429 23.5821 203.405 23.6947 203.358 23.7986C203.312 23.9025 203.244 23.9954 203.159 24.0714C203.083 24.1539 202.992 24.2204 202.89 24.2668C202.788 24.3133 202.678 24.3388 202.567 24.3418H192.465V26.9354C192.465 27.4763 192.565 27.8495 192.765 28.0361C192.966 28.2227 193.342 28.3066 193.891 28.3066H202.567C202.794 28.3114 203.011 28.4043 203.172 28.5656C203.333 28.7269 203.425 28.9443 203.429 29.172V35.7007C203.43 35.812 203.406 35.922 203.359 36.023C203.313 36.124 203.244 36.2134 203.159 36.2848" fill="black"/>
<path d="M235.94 35.8277C235.943 35.9327 235.924 36.0372 235.883 36.1338C235.842 36.2305 235.78 36.3171 235.702 36.3876C235.556 36.5257 235.362 36.6031 235.161 36.6039H226.096C225.693 36.6039 225.422 36.5174 225.284 36.3335C225.143 36.1446 225.02 35.9426 224.917 35.7304L219.778 25.575H218.396V35.7304C218.39 35.9577 218.297 36.174 218.136 36.3345C217.974 36.4951 217.758 36.5876 217.531 36.5931H209.103C208.867 36.5892 208.641 36.492 208.476 36.3227C208.39 36.2478 208.321 36.155 208.274 36.0509C208.228 35.9467 208.204 35.8337 208.205 35.7196V8.25543C208.195 7.7043 208.246 7.1537 208.357 6.6138C208.435 6.22556 208.606 5.8619 208.855 5.55364C209.104 5.26632 209.425 5.04989 209.785 4.9262C210.251 4.76368 210.732 4.64772 211.221 4.58003C211.598 4.52233 212.16 4.46463 212.909 4.40694C213.657 4.34924 214.486 4.29245 215.397 4.23656C216.308 4.17706 217.23 4.13649 218.169 4.10674C219.107 4.07699 219.951 4.06347 220.703 4.06347C222.671 4.04553 224.635 4.22675 226.566 4.60437C228.157 4.9008 229.672 5.5113 231.023 6.40015C232.243 7.22731 233.216 8.36937 233.839 9.70504C234.49 11.0735 234.814 12.78 234.812 14.8246V15.6874C234.827 16.7425 234.673 17.7933 234.358 18.8002C234.085 19.6583 233.689 20.4726 233.184 21.2181C232.738 21.8774 232.198 22.4679 231.58 22.9706C231.042 23.4092 230.452 23.7789 229.822 24.0713L235.81 35.3517C235.889 35.4986 235.933 35.6613 235.94 35.8277ZM224.616 14.876C224.638 14.5597 224.589 14.2425 224.473 13.9474C224.357 13.6522 224.177 13.3866 223.946 13.1695C223.499 12.78 222.729 12.588 221.633 12.588H218.388V18.0214H221.633C222.728 18.0214 223.498 17.7834 223.946 17.3074C224.368 16.8903 224.609 16.3239 224.616 15.7306V14.876Z" fill="black"/>
<path d="M118.9 49.3828C118.729 49.4765 118.535 49.5205 118.34 49.5099H118.186L113.588 49.2556C111.749 49.1529 109.742 49.1015 107.566 49.1015C106.622 49.0906 105.683 49.2284 104.783 49.5099C103.961 49.7744 103.229 50.26 102.665 50.9135C102.026 51.6956 101.572 52.6118 101.337 53.5937C101.003 54.9633 100.848 56.3706 100.877 57.7802V64.1601C100.841 65.6258 101.023 67.0888 101.418 68.5008C101.695 69.4689 102.164 70.3713 102.797 71.1539C103.291 71.7537 103.935 72.2119 104.664 72.4818C105.285 72.7092 105.941 72.8299 106.603 72.8388C107.998 72.8388 109.309 72.7874 110.535 72.6847V60.9445C110.53 60.6805 110.627 60.4248 110.805 60.2305C110.891 60.1323 110.997 60.054 111.116 60.0012C111.236 59.9484 111.365 59.9224 111.495 59.9249H118.029C118.298 59.9311 118.553 60.0405 118.743 60.2304C118.933 60.4202 119.043 60.676 119.049 60.9445V78.0964C119.049 78.7418 118.709 79.1331 118.029 79.2701C116.634 79.5406 115.017 79.7876 113.18 80.0111C110.993 80.2489 108.794 80.3591 106.595 80.3411C105.558 80.3338 104.524 80.2315 103.506 80.0355C102.381 79.8246 101.284 79.4824 100.239 79.0159C99.1275 78.5132 98.0894 77.8617 97.1532 77.0795C96.1283 76.2171 95.2426 75.2018 94.5271 74.0694C93.7052 72.7512 93.093 71.3132 92.7124 69.8071C92.247 67.9505 92.0242 66.0415 92.0498 64.1277V57.7991C92.0498 54.5321 92.5096 51.852 93.4291 49.7587C94.3487 47.6654 95.5476 46.0067 97.0261 44.7824C98.4835 43.5703 100.193 42.6982 102.029 42.2294C103.838 41.7584 105.699 41.5176 107.568 41.5127C109.754 41.4786 111.938 41.6151 114.102 41.9211C115.905 42.2095 117.283 42.4566 118.235 42.6621C118.813 42.7649 119.103 43.02 119.103 43.4275V48.8365C119.119 48.9364 119.108 49.0388 119.073 49.1336C119.037 49.2284 118.978 49.3123 118.9 49.3774" fill="#E42618"/>
<path d="M146.156 79.6785C145.273 79.8155 144.09 79.9597 142.608 80.1112C141.126 80.2626 139.008 80.3393 136.253 80.3411C134.676 80.3464 133.102 80.2097 131.549 79.9327C130.126 79.6946 128.769 79.1552 127.571 78.3506C126.372 77.5037 125.423 76.3488 124.826 75.0078C124.141 73.5654 123.798 71.6858 123.798 69.3689V52.4199C123.798 50.1084 124.141 48.2369 124.826 46.8053C125.428 45.474 126.376 44.3282 127.571 43.4869C128.778 42.6812 130.142 42.141 131.574 41.9021C133.135 41.628 134.718 41.4923 136.304 41.4964C137.667 41.4964 138.867 41.5217 139.904 41.5722C140.94 41.6226 141.851 41.6821 142.635 41.7507C143.417 41.821 144.09 41.8859 144.65 41.9562C145.21 42.0265 145.713 42.0914 146.156 42.159C146.838 42.2618 147.179 42.6026 147.179 43.1813V47.9277C147.172 48.1967 147.062 48.4528 146.872 48.643C146.681 48.8333 146.425 48.9432 146.156 48.95H135.795C134.602 48.95 133.76 49.197 133.269 49.691C132.779 50.1851 132.529 51.0947 132.52 52.4199V57.0662H145.74C145.873 57.0661 146.006 57.0931 146.128 57.1456C146.251 57.1982 146.362 57.2751 146.454 57.3718C146.551 57.4635 146.628 57.5742 146.681 57.697C146.734 57.8198 146.76 57.9522 146.759 58.0858V62.9349C146.754 63.2039 146.645 63.4603 146.455 63.6508C146.265 63.8412 146.009 63.951 145.74 63.9572H132.52V69.3662C132.52 70.6914 132.767 71.601 133.261 72.0951C133.755 72.5891 134.597 72.8361 135.787 72.8361H146.148C146.417 72.8429 146.672 72.9524 146.863 73.1421C147.053 73.3318 147.163 73.5872 147.171 73.8557V78.6048C147.171 79.216 146.83 79.5766 146.148 79.6866" fill="#E42618"/>
<path d="M173.72 79.6785C172.833 79.8155 171.651 79.9597 170.172 80.1112C168.694 80.2626 166.575 80.3393 163.816 80.3411C162.239 80.3464 160.664 80.2097 159.111 79.9327C157.688 79.6946 156.332 79.1552 155.135 78.3506C153.934 77.5046 152.985 76.3495 152.387 75.0078C151.702 73.5654 151.361 71.6858 151.362 69.3689V52.4199C151.362 50.1084 151.704 48.2369 152.387 46.8053C152.99 45.4732 153.939 44.3272 155.135 43.4869C156.342 42.6803 157.706 42.14 159.138 41.9021C160.699 41.628 162.282 41.4923 163.868 41.4964C165.229 41.4964 166.429 41.5217 167.468 41.5722C168.506 41.6226 169.417 41.6821 170.199 41.7507C170.978 41.821 171.651 41.8859 172.214 41.9562C172.776 42.0265 173.277 42.0914 173.72 42.159C174.398 42.2618 174.738 42.6026 174.74 43.1813V47.9277C174.734 48.1967 174.625 48.4531 174.435 48.6436C174.245 48.834 173.989 48.9438 173.72 48.95H163.351C162.161 48.95 161.319 49.197 160.825 49.691C160.331 50.1851 160.092 51.0947 160.106 52.4199V57.0662H173.323C173.457 57.066 173.589 57.093 173.712 57.1455C173.836 57.198 173.947 57.275 174.039 57.3718C174.137 57.4635 174.214 57.5742 174.267 57.697C174.319 57.8198 174.346 57.9522 174.345 58.0858V62.9349C174.346 63.069 174.319 63.2017 174.267 63.325C174.214 63.4483 174.137 63.5595 174.039 63.6516C173.947 63.7484 173.836 63.8254 173.712 63.8779C173.589 63.9304 173.457 63.9574 173.323 63.9572H160.106V69.3662C160.106 70.6914 160.352 71.601 160.844 72.0951C161.336 72.5891 162.178 72.8361 163.37 72.8361H173.734C174.002 72.8423 174.258 72.9517 174.448 73.1416C174.638 73.3315 174.747 73.5872 174.753 73.8557V78.6048C174.753 79.216 174.414 79.5766 173.734 79.6866" fill="#E42618"/>
<path d="M208.787 42.5161C208.769 42.7738 208.681 43.0218 208.532 43.2328L196.384 60.4847L208.584 78.8131C208.715 78.9701 208.787 79.1683 208.787 79.3729C208.787 79.7137 208.551 79.8814 208.073 79.8814H199.291C199.044 79.8997 198.799 79.8276 198.601 79.6785C198.435 79.5277 198.288 79.3559 198.166 79.1674L187.805 62.3238V78.8618C187.799 79.1302 187.69 79.386 187.5 79.5759C187.31 79.7658 187.054 79.8752 186.786 79.8814H180.1C179.966 79.8822 179.833 79.8555 179.71 79.8029C179.587 79.7504 179.476 79.673 179.383 79.5758C179.286 79.4843 179.208 79.3736 179.156 79.2507C179.103 79.1279 179.077 78.9954 179.078 78.8618V42.9245C179.076 42.7943 179.102 42.6652 179.155 42.5461C179.208 42.4271 179.286 42.3209 179.383 42.2348C179.579 42.0559 179.835 41.9591 180.1 41.9644H186.786C187.05 41.9587 187.306 42.0556 187.5 42.2348C187.597 42.3209 187.675 42.4271 187.728 42.5461C187.781 42.6652 187.807 42.7943 187.805 42.9245V59.1514L199.034 42.5594C199.146 42.3626 199.311 42.201 199.509 42.093C199.708 41.985 199.933 41.9348 200.159 41.9482H207.975C208.516 41.9482 208.787 42.1348 208.787 42.508" fill="#E42618"/>
<path d="M235.94 69.1634C235.937 70.5387 235.696 71.9031 235.226 73.1958C234.727 74.5558 233.916 75.7796 232.857 76.7684C231.604 77.9121 230.132 78.789 228.53 79.3458C226.761 80.0111 224.583 80.3428 221.996 80.341C220.197 80.3562 218.399 80.2541 216.614 80.0354C215.176 79.8546 213.752 79.5836 212.349 79.2241C212.087 79.1619 211.844 79.0396 211.637 78.8671C211.537 78.7882 211.457 78.6868 211.404 78.5713C211.35 78.4557 211.325 78.3291 211.329 78.2018V73.1958C211.312 73.0569 211.326 72.9161 211.37 72.7833C211.414 72.6505 211.487 72.5291 211.583 72.4277C211.775 72.2856 212.01 72.214 212.249 72.2249H212.4C212.91 72.2934 213.617 72.361 214.52 72.4277C215.424 72.4944 216.351 72.5548 217.303 72.6089L220.032 72.7631C220.9 72.8117 221.59 72.8388 222.098 72.8388C223.867 72.8388 225.067 72.5494 225.698 71.9706C226.329 71.3919 226.644 70.4904 226.642 69.2661C226.663 68.5625 226.42 67.8763 225.96 67.3432C225.501 66.8168 224.608 66.1614 223.283 65.3771L216.238 61.1932C215.179 60.5755 214.195 59.8387 213.303 58.9972C212.581 58.3071 211.962 57.5164 211.464 56.6497C211.015 55.8616 210.688 55.0099 210.493 54.1237C210.309 53.2424 210.218 52.344 210.223 51.4435C210.213 50.1141 210.428 48.7926 210.861 47.5355C211.298 46.3119 212.043 45.2218 213.025 44.3713C214.203 43.3861 215.578 42.6641 217.057 42.2537C218.723 41.7434 220.797 41.4874 223.278 41.4856C224.194 41.4856 225.19 41.5235 226.253 41.5884C227.315 41.6533 228.351 41.7425 229.338 41.8453C230.326 41.9481 231.245 42.0671 232.097 42.2023C232.767 42.3025 233.432 42.4388 234.087 42.6107C234.286 42.676 234.47 42.7798 234.628 42.9163C234.709 42.9961 234.771 43.0922 234.81 43.1982C234.85 43.3041 234.866 43.4174 234.858 43.5302V48.6823C234.864 48.9005 234.802 49.1152 234.68 49.2962C234.594 49.3913 234.486 49.4641 234.366 49.5084C234.246 49.5527 234.117 49.5671 233.99 49.5504H233.887C233.514 49.5179 232.91 49.4756 232.075 49.4233C231.242 49.3719 230.298 49.3151 229.244 49.2448C228.189 49.1745 227.107 49.1177 225.998 49.0663C224.889 49.0149 223.91 48.9879 223.061 48.9879C221.598 48.9879 220.568 49.2123 219.973 49.6532C219.378 50.094 219.078 50.7755 219.078 51.6951C219.071 52.0246 219.124 52.3527 219.234 52.6633C219.354 52.9642 219.539 53.2348 219.775 53.4557C220.094 53.7617 220.444 54.0336 220.819 54.267C221.263 54.5564 221.823 54.8891 222.504 55.2623L229.038 58.7781C231.692 60.2061 233.504 61.7711 234.474 63.4731C235.451 65.2001 235.953 67.155 235.929 69.139" fill="#E42618"/>
</svg>
